<?xml version="1.0" encoding="UTF-8"?><svg id="a" xmlns="http://www.w3.org/2000/svg" viewBox="0 0 500 494.97"><defs><style>.b{fill:#fff;}</style></defs><path class="b" d="M315.98,247.49l63.5,62.88,24.46-24.25c2.32-2.32,6.13-2.32,8.5,0l28.74,28.43c2.32,2.32,2.32,6.13,0,8.45l-38.83,38.47,48.56,48.05,10.09-9.99c2.37-2.32,6.18-2.32,8.5,0l28.74,28.43c2.37,2.32,2.37,6.13,0,8.45l-57.42,56.85c-2.37,2.32-6.18,2.32-8.55,0l-28.74-28.43c-2.32-2.32-2.32-6.08,0-8.45l10.14-9.99-48.56-48.1-38.83,38.47c-2.37,2.32-6.18,2.32-8.55,0l-28.74-28.43c-2.32-2.32-2.32-6.13,0-8.45l24.51-24.2-63.5-62.88-63.5,62.88,24.46,24.2c2.37,2.32,2.37,6.13,0,8.45l-28.74,28.43c-2.37,2.32-6.18,2.32-8.5,0l-38.83-38.47-48.56,48.1,10.09,9.99c2.37,2.37,2.37,6.13,0,8.45l-28.74,28.43c-2.32,2.32-6.18,2.32-8.5,0L1.74,436.38c-2.32-2.32-2.32-6.13,0-8.45l28.74-28.43c2.37-2.32,6.18-2.32,8.5,0l10.14,9.99,48.56-48.05-38.83-38.47c-2.37-2.32-2.37-6.13,0-8.45l28.68-28.43c2.37-2.32,6.18-2.32,8.55,0l24.46,24.25,63.5-62.88L30.48,95.48c-.82-.82-1.34-1.8-1.6-2.88L.3,7.78C-.73,4.69.97,1.34,4.11.31,5.4-.1,6.69-.1,7.87.31l86.21,28.43c.21.1,2.37,1.44,2.37,1.44l153.56,152.02L403.57,30.18c.62-.62,1.44-1.13,2.37-1.44L492.1.31c1.18-.41,2.47-.41,3.76,0,3.14,1.03,4.84,4.38,3.81,7.47l-28.58,84.82c-.21,1.08-.77,2.06-1.6,2.88l-153.51,152.02ZM370.92,318.77l-63.5-62.88-5.82,5.82,63.5,62.88,5.82-5.82ZM360.83,385.66l10.09-9.99-20.19-20.03-48.97,48.46,20.24,20.03,38.83-38.47ZM379.47,367.22l48.92-48.46-20.24-20.03-48.92,48.46,20.24,20.03ZM393.84,369.85l-20.24,20.03,5.77,5.72,20.19-20.03-5.72-5.72ZM110.45,357.23l10.09,9.99,20.19-20.03-48.92-48.46-20.24,20.03,38.88,38.47ZM129.04,375.67l48.92,48.46,20.24-20.03-48.92-48.46-20.24,20.03ZM126.36,389.88l-20.19-20.03-5.77,5.72,20.24,20.03,5.72-5.72ZM129.04,318.77l5.87,5.82L417.94,44.39c.62-.62,1.44-1.13,2.32-1.44l43.1-14.21c1.18-.36,2.52-.41,3.76,0,3.14,1.03,4.84,4.38,3.81,7.52l-14.16,42.12c-.26,1.08-.82,2.06-1.65,2.88L172.15,361.46l5.82,5.77L460.01,88.01l24.51-72.71-73.43,24.25L129.04,318.77ZM143.41,332.98l20.24,20.03L445.65,73.79l10.14-30.02-30.33,9.99L143.41,332.98ZM83.57,432.26l-20.19-20.03-5.77,5.72,20.19,19.98,5.77-5.66ZM71.88,403.84l20.19,19.98,5.77-5.72-20.19-19.98-5.77,5.72ZM112.1,403.99l-20.19-20.03-5.77,5.72,20.24,20.03,5.72-5.72ZM407.9,423.82l20.24-19.98-5.77-5.72-20.24,19.98,5.77,5.72ZM436.63,412.23l-20.24,20.03,5.77,5.66,20.24-19.98-5.77-5.72ZM408.1,383.96l-20.24,20.03,5.77,5.72,20.19-20.03-5.72-5.72ZM356.56,332.98l-63.5-62.83-20.19,19.98,63.5,62.88,20.19-20.03ZM327.87,361.46l-63.5-62.88-5.87,5.77,63.5,62.88,5.87-5.77ZM198.41,233.28L44.85,81.26c-.82-.82-1.34-1.8-1.6-2.88l-14.21-42.12c-1.03-3.14.67-6.49,3.81-7.52,1.29-.41,2.57-.36,3.76,0l43.1,14.21c.26.1,2.37,1.44,2.37,1.44l153.56,152.02,5.82-5.82L88.88,39.55,15.49,15.29l24.46,72.71,152.59,151.04,5.87-5.77ZM54.32,73.79l152.59,151.04,20.24-20.03L74.56,53.76l-30.33-9.99,10.09,30.02ZM442.4,474.8l-10.14-9.99c-2.32-2.32-2.32-6.08,0-8.45l28.74-28.43c2.37-2.32,6.18-2.32,8.5,0l10.14,9.99,5.82-5.77-20.19-20.03-48.97,48.46,20.24,20.03,5.87-5.82ZM445.03,460.59l5.87,5.82,20.19-20.03-5.82-5.77-20.24,19.98ZM49.12,466.41l5.82-5.82-20.19-19.98-5.87,5.77,20.24,20.03ZM67.71,464.81l-10.09,9.99,5.82,5.82,20.24-20.03-48.92-48.46-20.24,20.03,5.87,5.77,10.09-9.99c2.37-2.32,6.18-2.32,8.5,0l28.74,28.43c2.37,2.37,2.37,6.13,0,8.45Z"/></svg>